<svg id="Layer_6" data-name="Layer 6" xmlns="http://www.w3.org/2000/svg" viewBox="0 0 181.51 106.92"><defs><style>.cls-1{fill:#c6007e;}.cls-2{fill:#d3007f;}.cls-3{fill:#e899cb;}</style></defs><title>Euro Accident SVG2</title><path class="cls-1" d="M126.38,32.91c6-5,7.83-14.09,5.71-19.66-1.64-4.32-5.69-7-9.46-8.21-9.14-3-20.87-3.58-27.3-3.65a33.56,33.56,0,0,0-3.49,0c-.26,0-.71,0-1,0l-.48,0L90.32,50.6h14V39.36a85.24,85.24,0,0,0,11.77-.81c5.75,4.73,7.78,12.05,7.78,12.05h15.52S134,39,126.38,32.91Zm-22.14-.46v-22c5.77.34,9.24,1.27,11.57,3.38a9.22,9.22,0,0,1,2.08,10.48C114.76,31.72,105.18,32.47,104.24,32.45Z"/><path class="cls-2" d="M112.2,33.55"/><path class="cls-1" d="M0,50.6H38V43.2H14v-16H33.32V19.71H13.84v-11H38V1.34H0Z"/><path class="cls-1" d="M70.58,1.36l-.12,39.92s-.31,3.81-6.75,3.81-6.89-4-6.89-4L56.9,1.36H42.82V43.15s4.63,9,21,9c0,0,18.68-.65,21.08-9V1.31Z"/><path class="cls-1" d="M181.51,42.55V10.45S179.26,0,160.8,0s-21.29,8.84-22,10.45v32s3.09,9.68,22.13,9.66C181,52.06,181.53,42.55,181.51,42.55Zm-14-1.27s-1.35,3.59-7,3.74-6.77-3.89-6.77-3.89l-.26-31.55s1.87-3.28,7.29-3.28,6.77,3.28,6.77,3.28Z"/><path class="cls-2" d="M53,98.75c0-.94,0-1.7,0-2.1V91.89L52.5,92l-1.22.25a10.31,10.31,0,0,0-1.91-.49,15.06,15.06,0,0,0-2-.17,4.54,4.54,0,0,0-4.77,4.82c0,3,1.85,5,4.62,5a4.73,4.73,0,0,0,4-2.31.49.49,0,0,0,0,.12.38.38,0,0,0,0,.1,4.66,4.66,0,0,1,0,.67,9.37,9.37,0,0,1-.19,1.19l0,.09h2.52l0-.1A8.7,8.7,0,0,1,53,98.75ZM51,94.26v2.1a3.5,3.5,0,0,1-3.45,3.54c-1.68,0-2.81-1.42-2.81-3.54,0-2,1-3.34,2.52-3.44l.43,0a4.28,4.28,0,0,1,2.18.52A5.22,5.22,0,0,1,51,94.26Z"/><path class="cls-2" d="M45.63,89.72a1.16,1.16,0,1,0-1.36-1.14A1.27,1.27,0,0,0,45.63,89.72Z"/><path class="cls-2" d="M50.48,89.72a1.16,1.16,0,1,0-1.36-1.14A1.27,1.27,0,0,0,50.48,89.72Z"/><path class="cls-2" d="M13.19,89.72a1.16,1.16,0,1,0,0-2.28,1.16,1.16,0,1,0,0,2.28Z"/><path class="cls-2" d="M18.05,89.72a1.16,1.16,0,1,0,0-2.28,1.16,1.16,0,1,0,0,2.28Z"/><path class="cls-2" d="M7,85.83c-2.57,0-4,1.31-4,3.7H3v.07c0,.76,0,7.62,0,9.69a13.18,13.18,0,0,1-.19,1.79l0,.09H5.53l0-.1A9.94,9.94,0,0,1,5,98.67c0-.92,0-5.1,0-5.72H9V91.54H5v-2C5,88,5.7,87.24,7,87.24A5.23,5.23,0,0,1,9.52,88l.12.07V86.1l-.06,0A10.71,10.71,0,0,0,7,85.83Z"/><path class="cls-2" d="M15.64,91.4c-3.18,0-5.32,2-5.32,5s2.14,5,5.32,5,5.31-2,5.31-5S18.82,91.4,15.64,91.4Zm3.16,5c0,2.12-1.27,3.54-3.16,3.54s-3.16-1.42-3.16-3.54,1.27-3.55,3.16-3.55S18.8,94.24,18.8,96.36Z"/><path class="cls-2" d="M25.21,93.57l-.13-2h-1.9v7.75a10.73,10.73,0,0,1-.19,1.79l0,.09h2.76l0-.1a9,9,0,0,1-.48-2.38c0-1,0-2.32,0-2.33a3,3,0,0,1,3.26-3h1.66v-2h-1A4.86,4.86,0,0,0,25.21,93.57Z"/><path class="cls-2" d="M36.92,95.5c-1.35-.32-2.76-.65-2.76-1.51,0-.6,1-1,2.3-1a6.39,6.39,0,0,1,3.29.82l.12.08V91.78h-.06a13.8,13.8,0,0,0-3-.37c-3.17,0-4.84.92-4.84,2.64,0,2,2,2.59,3.87,3,1.36.32,2.48.65,2.48,1.46s-1,1.23-2.46,1.23a7.28,7.28,0,0,1-3.77-1.1l-.12-.08v2l0,0a12,12,0,0,0,3.52.7c3.22,0,5-1.07,5-3S38.74,95.93,36.92,95.5Z"/><path class="cls-2" d="M65,100.32c-.32-.25-.77-.62-1.33-1.09s-2.6-2.64-3-3l4.94-4.68h-2.6l-4.69,4.68,0,.06s3.46,3.33,4,4a9.42,9.42,0,0,1,.74.88l0,0h3.06l-.24-.14S65.44,100.66,65,100.32Z"/><path class="cls-2" d="M58,98.67c0-1.39,0-12.51,0-12.62V86H55.94V99.29a15.84,15.84,0,0,1-.2,1.79l0,.09h2.84l-.06-.11A5.47,5.47,0,0,1,58,98.67Z"/><path class="cls-2" d="M70.06,93.57l-.13-2H68v7.75c0,.45-.17,1.78-.17,1.79v.09h2.68l0-.1a9.68,9.68,0,0,1-.41-2.39c0-1.14,0-2.31,0-2.32a3,3,0,0,1,3.26-3H75v-2H74A4.86,4.86,0,0,0,70.06,93.57Z"/><path class="cls-2" d="M78.46,87.13A1.28,1.28,0,1,0,80,88.39,1.41,1.41,0,0,0,78.46,87.13Z"/><path class="cls-2" d="M79.44,98.79c0-1.09,0-2.29,0-2.3v-5H77.38v7.19s0,.18,0,.68a16.45,16.45,0,0,1-.2,1.68l0,.09h2.67l0-.1A10,10,0,0,1,79.44,98.79Z"/><path class="cls-2" d="M92.2,98.62c0-1.41,0-4.32,0-4.35,0-1.72-1.69-2.87-4.2-2.87a4.8,4.8,0,0,0-3.93,2.11l-.13-2H82.06v7.75a16.56,16.56,0,0,1-.17,1.79v.09H84.5l0-.11a6.54,6.54,0,0,1-.34-2.36V96.49a3.71,3.71,0,0,1,3.73-3.68c1.38,0,2.3.7,2.3,1.73v4.75c0,.6-.17,1.78-.17,1.79v.09h2.68l0-.1A8,8,0,0,1,92.2,98.62Z"/><path class="cls-2" d="M105.05,91.88l-1.75.32a11.86,11.86,0,0,0-2-.5c-.88-.12-2-.16-2-.16h0a4.55,4.55,0,0,0-4.78,4.82c0,3,1.86,5,4.62,5a4.63,4.63,0,0,0,3.79-2v2.8c0,2-1.5,3.4-3.73,3.4a10.65,10.65,0,0,1-4.14-1.06l-.12-.08v2.21h.06a27,27,0,0,0,4.2.37c3.47,0,5.79-2,5.79-4.85ZM103,94.27v2a3.57,3.57,0,0,1-3.44,3.68c-1.69,0-2.81-1.42-2.81-3.54s1.11-3.46,2.77-3.46h.07a6.71,6.71,0,0,1,.8,0,4.63,4.63,0,0,1,1.2.34A6.9,6.9,0,0,1,103,94.27Z"/><path class="cls-2" d="M176.21,101.08l0,.09h2.53l0-.1a9.4,9.4,0,0,1-.44-2.32c0-.94,0-1.7,0-2.1V91.89l-.54.06-1.21.25a10.57,10.57,0,0,0-1.91-.49,15.17,15.17,0,0,0-2-.17,4.54,4.54,0,0,0-4.77,4.82c0,3,1.85,5,4.61,5a4.7,4.7,0,0,0,4-2.31.49.49,0,0,1,0,.12.31.31,0,0,1,0,.1,4.19,4.19,0,0,1,0,.67A11.78,11.78,0,0,1,176.21,101.08Zm-.05-6.82v2.1a3.5,3.5,0,0,1-3.45,3.54c-1.68,0-2.81-1.42-2.81-3.54,0-2,1-3.34,2.52-3.44l.43,0a4.32,4.32,0,0,1,2.18.52A5.22,5.22,0,0,1,176.16,94.26Z"/><path class="cls-2" d="M149.46,98.75c0-.94,0-1.7,0-2.1V91.89l-.53.06-1.22.25a10.36,10.36,0,0,0-1.9-.49,15.17,15.17,0,0,0-2-.17A4.55,4.55,0,0,0,139,96.36c0,3,1.86,5,4.62,5a4.73,4.73,0,0,0,4-2.31s0,.08,0,.12a.38.38,0,0,0,0,.1,3.5,3.5,0,0,1,0,.67,9.37,9.37,0,0,1-.19,1.19l0,.09h2.52l0-.1A8.7,8.7,0,0,1,149.46,98.75Zm-2.07-4.49v2.1A3.49,3.49,0,0,1,144,99.9c-1.68,0-2.81-1.42-2.81-3.54,0-2,1-3.34,2.51-3.44l.44,0a4.23,4.23,0,0,1,2.17.52A5,5,0,0,1,147.39,94.26Z"/><path class="cls-2" d="M142.1,89.72a1.16,1.16,0,1,0-1.36-1.14A1.27,1.27,0,0,0,142.1,89.72Z"/><path class="cls-2" d="M147,89.72a1.16,1.16,0,1,0-1.36-1.14A1.27,1.27,0,0,0,147,89.72Z"/><path class="cls-2" d="M136.61,98.69V94.27c0-1.72-1.69-2.87-4.2-2.87a4.73,4.73,0,0,0-3.89,2.12V86h-2.06V99.29a17.21,17.21,0,0,1-.22,1.79v.09h2.66l0-.1a10.44,10.44,0,0,1-.34-2.4v-2a3.78,3.78,0,0,1,3.73-3.82c1.38,0,2.3.7,2.3,1.73v4.75c0,.52-.16,1.78-.16,1.79v.09H137l0-.1A8.27,8.27,0,0,1,136.61,98.69Z"/><path class="cls-2" d="M154.43,98.67V86h-2.06V99.19c0,.42-.2,1.88-.2,1.89v.09h2.77l0-.11A7.15,7.15,0,0,1,154.43,98.67Z"/><path class="cls-2" d="M162.11,95.5c-1.36-.32-2.76-.65-2.76-1.51,0-.6,1-1,2.3-1a6.39,6.39,0,0,1,3.29.82l.12.08V91.78H165a13.87,13.87,0,0,0-3-.37c-3.17,0-4.84.92-4.84,2.64,0,2,2,2.59,3.87,3,1.35.32,2.48.65,2.48,1.46s-1,1.23-2.47,1.23a7.24,7.24,0,0,1-3.76-1.1l-.12-.08v2l.05,0a12,12,0,0,0,3.52.7c3.22,0,5-1.07,5-3S163.93,95.93,162.11,95.5Z"/><path class="cls-3" d="M98,64.58c-.65,0-1,0-1.29,0v6.74a5.85,5.85,0,0,0,.94,0c2.51,0,3.66-.78,3.66-3.56C101.28,65.35,100,64.62,98,64.58Z"/><path class="cls-3" d="M0,57.35V78.47H181.51V57.35ZM21.74,73.72,20.89,71l-3.69,0-.78,2.66-3.38,0L16.68,62.1h4.67l3.8,11.67Zm20.65-2.41a9.3,9.3,0,0,0,2.33-.4l.63,2.49a8.23,8.23,0,0,1-3.14.51c-4.23,0-6.5-2.51-6.5-5.83,0-4,3.06-6.17,6.77-6.17a7.6,7.6,0,0,1,3,.51l-.66,2.5a4.53,4.53,0,0,0-2.13-.4c-1.86.14-3.43.94-3.43,3.53C39.27,70.38,40.61,71.43,42.39,71.31Zm20.91-.1A10.24,10.24,0,0,0,65.53,71L66,73.4a8.23,8.23,0,0,1-3.14.51c-4.24,0-6.5-2.51-6.5-5.83,0-4,3.06-6.17,6.77-6.17a7.6,7.6,0,0,1,3,.51l-.56,2.5a5.35,5.35,0,0,0-2.31-.36c-1.83.11-3.26.93-3.26,3.52C60,70.4,61.29,71.26,63.3,71.21Zm18.17,2.51H77.76V62.1h3.71Zm21.17-1.38A9.11,9.11,0,0,1,97,73.85a35.3,35.3,0,0,1-3.67-.17V62.31a32.56,32.56,0,0,1,4.27-.3,8.22,8.22,0,0,1,5,1.24,5.05,5.05,0,0,1,2.07,4.38A5.74,5.74,0,0,1,102.64,72.34Zm13.66,1.38V62.09h8l0,2.42h-4.76v2h4.51v2.37h-4.51v2.21h5v2.58Zm31.3,0h-3.9s-1.65-3.18-2.24-4.26-1.2-2.17-1.85-3.56l-.06,0c.08,1.53.08,2.41.08,4.3v3.5h-3.21V62.1h4.28l2.2,4.2c.73,1.3,1.08,1.91,1.71,3.09h.06c-.1-1.86-.11-2-.16-3.91V62.1h3.09Zm20.87-8.93h-3.1v8.93h-3.45V64.79h-3.1V62.1h9.65Z"/><path class="cls-3" d="M19.09,64.53h-.17c-.18.69-.3,1.1-.5,1.78l-.73,2.27H20.4l-.76-2.27C19.42,65.62,19.27,65.22,19.09,64.53Z"/><polygon class="cls-2" points="116.56 95.83 120.51 95.83 120.51 93.8 116.56 93.8 116.56 89.74 114.59 89.74 114.59 93.8 110.65 93.8 110.65 95.83 114.59 95.83 114.59 99.89 116.56 99.89 116.56 95.83"/></svg>